<svg width="144" height="42" viewBox="0 0 144 42" fill="none" xmlns="http://www.w3.org/2000/svg">
<path d="M1.826 7.18C0.909333 7.18 0.451 7.60167 0.451 8.445H0.231V7.62C0.231 7.03333 0.542667 6.74 1.166 6.74H6.281V7.18H3.806V14H2.816V7.18H1.826ZM6.56958 8.06C6.56958 7.686 6.51825 7.411 6.41558 7.235C6.31291 7.05167 6.10758 6.96 5.79958 6.96H5.57958V6.74H6.56958C6.84091 6.74 7.04258 6.77667 7.17458 6.85C7.31391 6.916 7.41291 7.04067 7.47158 7.224C7.53025 7.40733 7.55958 7.686 7.55958 8.06V9.27C7.71358 9.116 7.91158 8.98767 8.15358 8.885C8.40291 8.775 8.68158 8.72 8.98958 8.72C9.53958 8.72 9.98691 8.86667 10.3316 9.16C10.6836 9.45333 10.8596 9.96667 10.8596 10.7V14H9.86958V10.7C9.86958 10.1867 9.75225 9.81267 9.51758 9.578C9.29025 9.336 9.00425 9.215 8.65958 9.215C8.27091 9.215 7.90425 9.40933 7.55958 9.798V14H6.56958V8.06ZM13.4148 14.11C12.9162 14.11 12.4945 13.9927 12.1498 13.758C11.8052 13.516 11.5448 13.1933 11.3688 12.79C11.1928 12.3793 11.1048 11.921 11.1048 11.415C11.1048 10.9163 11.1928 10.4617 11.3688 10.051C11.5448 9.64033 11.7978 9.31767 12.1278 9.083C12.4652 8.841 12.8575 8.72 13.3048 8.72C14.0455 8.72 14.5955 8.929 14.9548 9.347C15.3215 9.75767 15.5048 10.3553 15.5048 11.14L15.4828 11.58H12.1498C12.1498 12.196 12.2818 12.6983 12.5458 13.087C12.8098 13.4757 13.1728 13.67 13.6348 13.67C13.9795 13.67 14.2692 13.5967 14.5038 13.45C14.7458 13.3033 14.9695 13.0833 15.1748 12.79L15.3948 12.955C15.1528 13.3583 14.8705 13.6517 14.5478 13.835C14.2252 14.0183 13.8475 14.11 13.4148 14.11ZM14.4598 11.14C14.4598 10.4947 14.3645 10.0033 14.1738 9.666C13.9832 9.32867 13.6935 9.16 13.3048 9.16C13.0848 9.16 12.8868 9.248 12.7108 9.424C12.5348 9.59267 12.3955 9.82733 12.2928 10.128C12.1975 10.4287 12.1498 10.766 12.1498 11.14H14.4598Z" fill="black"/>
<path d="M126.166 34.06C126.166 33.686 126.115 33.411 126.012 33.235C125.909 33.0517 125.704 32.96 125.396 32.96H125.176V32.74H126.166C126.437 32.74 126.639 32.7767 126.771 32.85C126.91 32.916 127.009 33.0407 127.068 33.224C127.127 33.4073 127.156 33.686 127.156 34.06V36.04H130.456V32.74H131.446V38.68C131.446 39.054 131.497 39.3327 131.6 39.516C131.703 39.692 131.908 39.78 132.216 39.78H132.436V40H131.446C131.175 40 130.969 39.967 130.83 39.901C130.698 39.8277 130.603 39.6993 130.544 39.516C130.485 39.3327 130.456 39.054 130.456 38.68V36.48H127.156V40H126.166V34.06ZM134.31 40.11C133.76 40.11 133.309 39.9633 132.957 39.67C132.612 39.3767 132.44 38.8633 132.44 38.13V36.15C132.44 35.776 132.389 35.501 132.286 35.325C132.183 35.1417 131.978 35.05 131.67 35.05H131.56V34.83H132.44C132.711 34.83 132.913 34.8667 133.045 34.94C133.184 35.006 133.283 35.1307 133.342 35.314C133.401 35.4973 133.43 35.776 133.43 36.15V38.13C133.43 38.6433 133.544 39.021 133.771 39.263C134.006 39.4977 134.295 39.615 134.64 39.615C135.029 39.615 135.395 39.4207 135.74 39.032V34.83H136.73V40H136.18L135.795 39.56H135.74C135.586 39.714 135.384 39.846 135.135 39.956C134.893 40.0587 134.618 40.11 134.31 40.11ZM139.801 40.11C139.427 40.11 139.119 40.0513 138.877 39.934C138.635 39.8167 138.448 39.6737 138.316 39.505H138.261L137.876 40H137.326V34.06C137.326 33.686 137.274 33.411 137.172 33.235C137.069 33.0517 136.864 32.96 136.556 32.96H136.336V32.74H137.326C137.597 32.74 137.799 32.7767 137.931 32.85C138.07 32.916 138.169 33.0407 138.228 33.224C138.286 33.4073 138.316 33.686 138.316 34.06V35.05C138.528 34.9473 138.741 34.8667 138.954 34.808C139.166 34.7493 139.412 34.72 139.691 34.72C140.373 34.72 140.89 34.973 141.242 35.479C141.601 35.985 141.781 36.6303 141.781 37.415C141.781 38.1923 141.608 38.8377 141.264 39.351C140.919 39.857 140.431 40.11 139.801 40.11ZM139.471 39.67C139.889 39.67 140.204 39.4647 140.417 39.054C140.629 38.636 140.736 38.0897 140.736 37.415C140.736 36.733 140.622 36.1867 140.395 35.776C140.175 35.3653 139.83 35.16 139.361 35.16C139.207 35.16 139.049 35.1893 138.888 35.248C138.726 35.3067 138.536 35.3873 138.316 35.49V39.01C138.448 39.208 138.602 39.3693 138.778 39.494C138.961 39.6113 139.192 39.67 139.471 39.67Z" fill="black"/>
<path d="M2.756 17.96C2.756 17.076 2.63467 16.426 2.392 16.01C2.14933 15.5767 1.664 15.36 0.936 15.36H0.416V14.84H7.228C10.5907 14.84 13.13 15.5853 14.846 17.076C16.5793 18.5667 17.446 20.6467 17.446 23.316C17.446 25.032 17.082 26.5487 16.354 27.866C15.626 29.166 14.5427 30.18 13.104 30.908C11.6827 31.636 9.94933 32 7.904 32H2.756V17.96ZM7.826 31.09C9.10867 31.09 10.2613 30.778 11.284 30.154C12.324 29.5127 13.1387 28.62 13.728 27.476C14.3173 26.3147 14.612 24.9627 14.612 23.42C14.612 21.912 14.3173 20.5773 13.728 19.416C13.156 18.2547 12.35 17.3533 11.31 16.712C10.27 16.0707 9.09133 15.75 7.774 15.75C6.942 15.75 6.07533 15.8887 5.174 16.166V30.752C6.14467 30.9773 7.02867 31.09 7.826 31.09ZM22.8759 32.26C21.6973 32.26 20.7006 31.9827 19.8859 31.428C19.0713 30.856 18.4559 30.0933 18.0399 29.14C17.6239 28.1693 17.4159 27.086 17.4159 25.89C17.4159 24.7113 17.6239 23.6367 18.0399 22.666C18.4559 21.6953 19.0539 20.9327 19.8339 20.378C20.6313 19.806 21.5586 19.52 22.6159 19.52C24.3666 19.52 25.6666 20.014 26.5159 21.002C27.3826 21.9727 27.8159 23.3853 27.8159 25.24L27.7639 26.28H19.8859C19.8859 27.736 20.1979 28.9233 20.8219 29.842C21.4459 30.7607 22.3039 31.22 23.3959 31.22C24.2106 31.22 24.8953 31.0467 25.4499 30.7C26.0219 30.3533 26.5506 29.8333 27.0359 29.14L27.5559 29.53C26.9839 30.4833 26.3166 31.1767 25.5539 31.61C24.7913 32.0433 23.8986 32.26 22.8759 32.26ZM25.3459 25.24C25.3459 23.7147 25.1206 22.5533 24.6699 21.756C24.2193 20.9587 23.5346 20.56 22.6159 20.56C22.0959 20.56 21.6279 20.768 21.2119 21.184C20.7959 21.5827 20.4666 22.1373 20.2239 22.848C19.9986 23.5587 19.8859 24.356 19.8859 25.24H25.3459ZM32.5553 32.26C30.5619 32.26 29.2186 31.9133 28.5252 31.22C28.2306 30.9253 28.0486 30.596 27.9792 30.232C27.9099 29.8507 27.8752 29.27 27.8752 28.49H28.3952C28.5512 29.3567 28.9239 30.0327 29.5132 30.518C30.1199 30.986 30.9606 31.22 32.0352 31.22C32.9886 31.22 33.6992 31.0553 34.1672 30.726C34.6526 30.3967 34.8952 29.9547 34.8952 29.4C34.8952 28.8973 34.7046 28.464 34.3233 28.1C33.9593 27.736 33.3699 27.3893 32.5553 27.06L30.9953 26.41C29.9552 25.994 29.1752 25.5087 28.6552 24.954C28.1352 24.3993 27.8752 23.7147 27.8752 22.9C27.8752 21.8427 28.2739 21.0193 29.0712 20.43C29.8686 19.8233 30.8999 19.52 32.1653 19.52C34.0719 19.52 35.3719 19.8667 36.0653 20.56C36.3599 20.8547 36.5419 21.184 36.6113 21.548C36.6806 21.912 36.7153 22.4927 36.7153 23.29H36.1953C36.0566 22.4233 35.6926 21.756 35.1033 21.288C34.5139 20.8027 33.7079 20.56 32.6853 20.56C31.8706 20.56 31.2292 20.7333 30.7612 21.08C30.3106 21.4093 30.0852 21.8427 30.0852 22.38C30.0852 23.2813 30.7786 24.018 32.1653 24.59L33.7253 25.24C34.9039 25.7253 35.7619 26.2453 36.2993 26.8C36.8366 27.3373 37.1053 28.0307 37.1053 28.88C37.1053 29.9373 36.6806 30.7693 35.8313 31.376C34.9819 31.9653 33.8899 32.26 32.5553 32.26ZM39.1148 18.22C38.7161 18.22 38.3694 18.0553 38.0748 17.726C37.7974 17.3967 37.6588 17.0067 37.6588 16.556C37.6588 16.192 37.7628 15.906 37.9708 15.698C38.1961 15.49 38.4908 15.386 38.8548 15.386C39.2534 15.386 39.5914 15.5507 39.8688 15.88C40.1634 16.2093 40.3108 16.5993 40.3108 17.05C40.3108 17.414 40.1981 17.7 39.9728 17.908C39.7648 18.116 39.4788 18.22 39.1148 18.22ZM38.1268 22.9C38.1268 22.016 38.0054 21.366 37.7628 20.95C37.5201 20.5167 37.0348 20.3 36.3068 20.3H35.7868V19.78H38.1268C38.7681 19.78 39.2448 19.8667 39.5568 20.04C39.8861 20.196 40.1201 20.4907 40.2588 20.924C40.3974 21.3573 40.4668 22.016 40.4668 22.9V32H38.1268V22.9ZM46.3192 37.2C44.5685 37.2 43.1732 36.8793 42.1332 36.238C41.1105 35.5967 40.5992 34.574 40.5992 33.17C40.5992 32.3727 40.8679 31.6793 41.4052 31.09C41.9425 30.5007 42.6272 30.0673 43.4592 29.79C42.7659 29.4087 42.4192 28.8887 42.4192 28.23C42.4192 27.8833 42.4972 27.6147 42.6532 27.424C42.8092 27.2333 43.0345 27.0253 43.3292 26.8C42.7745 26.5227 42.3065 26.0893 41.9252 25.5C41.5612 24.9107 41.3792 24.2173 41.3792 23.42C41.3792 20.82 43.0259 19.52 46.3192 19.52H51.1292V20.17L49.4392 20.43V20.56C49.9765 20.8373 50.4099 21.2273 50.7392 21.73C51.0859 22.2153 51.2592 22.7787 51.2592 23.42C51.2592 26.02 49.6125 27.32 46.3192 27.32C44.4992 27.32 43.5892 27.6233 43.5892 28.23C43.5892 28.8367 44.4992 29.14 46.3192 29.14C48.0005 29.14 49.3699 29.478 50.4272 30.154C51.5019 30.8127 52.0392 31.818 52.0392 33.17C52.0392 34.574 51.5192 35.5967 50.4792 36.238C49.4565 36.8793 48.0699 37.2 46.3192 37.2ZM46.3192 26.41C47.0992 26.41 47.7232 26.176 48.1912 25.708C48.6765 25.2227 48.9192 24.46 48.9192 23.42C48.9192 22.432 48.6765 21.6867 48.1912 21.184C47.7232 20.6813 47.0992 20.43 46.3192 20.43C45.5392 20.43 44.9065 20.6727 44.4212 21.158C43.9532 21.626 43.7192 22.38 43.7192 23.42C43.7192 24.46 43.9532 25.2227 44.4212 25.708C44.9065 26.176 45.5392 26.41 46.3192 26.41ZM46.3192 36.16C47.3592 36.16 48.1825 35.9087 48.7892 35.406C49.3959 34.9207 49.6992 34.1753 49.6992 33.17C49.6992 31.4367 48.6592 30.44 46.5792 30.18L45.1492 30.05C44.4385 30.3273 43.8925 30.7173 43.5112 31.22C43.1299 31.7227 42.9392 32.3727 42.9392 33.17C42.9392 34.1753 43.2425 34.9207 43.8492 35.406C44.4559 35.9087 45.2792 36.16 46.3192 36.16ZM52.6421 22.9C52.6421 22.016 52.5207 21.366 52.2781 20.95C52.0354 20.5167 51.5501 20.3 50.8221 20.3H50.3021V19.78H52.6421C53.2834 19.78 53.7687 19.8667 54.0981 20.04C54.4447 20.2133 54.6961 20.4733 54.8521 20.82H54.9821C55.3461 20.456 55.8141 20.1527 56.3861 19.91C56.9754 19.65 57.6341 19.52 58.3621 19.52C59.6621 19.52 60.7194 19.8667 61.5341 20.56C62.3661 21.2533 62.7821 22.4667 62.7821 24.2V32H60.4421V24.2C60.4421 22.9867 60.1647 22.1027 59.6101 21.548C59.0727 20.976 58.3967 20.69 57.5821 20.69C56.6634 20.69 55.7967 21.1493 54.9821 22.068V32H52.6421V22.9ZM64.4447 22.9C64.4447 22.016 64.3233 21.366 64.0807 20.95C63.838 20.5167 63.3527 20.3 62.6247 20.3H62.1047V19.78H64.4447C65.086 19.78 65.5713 19.8667 65.9007 20.04C66.2473 20.2133 66.4987 20.4733 66.6547 20.82H66.7847C67.1487 20.456 67.6167 20.1527 68.1887 19.91C68.778 19.65 69.4367 19.52 70.1647 19.52C71.4647 19.52 72.522 19.8667 73.3367 20.56C74.1687 21.2533 74.5847 22.4667 74.5847 24.2V32H72.2447V24.2C72.2447 22.9867 71.9673 22.1027 71.4127 21.548C70.8753 20.976 70.1993 20.69 69.3847 20.69C68.466 20.69 67.5993 21.1493 66.7847 22.068V32H64.4447V22.9ZM80.8752 32.26C79.6966 32.26 78.6739 31.9827 77.8072 31.428C76.9406 30.856 76.2819 30.0847 75.8312 29.114C75.3806 28.1433 75.1552 27.0687 75.1552 25.89C75.1552 24.7113 75.3806 23.6367 75.8312 22.666C76.2819 21.6953 76.9406 20.9327 77.8072 20.378C78.6739 19.806 79.6966 19.52 80.8752 19.52C82.0539 19.52 83.0766 19.806 83.9432 20.378C84.8099 20.9327 85.4686 21.6953 85.9192 22.666C86.3699 23.6367 86.5952 24.7113 86.5952 25.89C86.5952 27.0687 86.3699 28.1433 85.9192 29.114C85.4686 30.0847 84.8099 30.856 83.9432 31.428C83.0766 31.9827 82.0539 32.26 80.8752 32.26ZM80.8752 31.22C81.5166 31.22 82.0799 30.986 82.5652 30.518C83.0679 30.05 83.4492 29.4087 83.7092 28.594C83.9866 27.7793 84.1252 26.878 84.1252 25.89C84.1252 24.902 83.9866 24.0007 83.7092 23.186C83.4492 22.3713 83.0679 21.73 82.5652 21.262C82.0799 20.794 81.5166 20.56 80.8752 20.56C80.2339 20.56 79.6619 20.794 79.1592 21.262C78.6739 21.73 78.2926 22.3713 78.0152 23.186C77.7552 24.0007 77.6252 24.902 77.6252 25.89C77.6252 26.878 77.7552 27.7793 78.0152 28.594C78.2926 29.4087 78.6739 30.05 79.1592 30.518C79.6619 30.986 80.2339 31.22 80.8752 31.22ZM87.6763 22.77C87.2603 21.7993 86.8616 21.1233 86.4803 20.742C86.0989 20.3433 85.5963 20.1267 84.9723 20.092V19.572C85.0589 19.572 85.1803 19.5633 85.3363 19.546C85.5096 19.5287 85.6829 19.52 85.8563 19.52C86.7749 19.52 87.6069 19.754 88.3523 20.222C89.0976 20.6727 89.7389 21.522 90.2763 22.77L92.6163 28.36L96.2563 19.78H97.5563L92.2263 32.26H91.7063L87.6763 22.77ZM100.47 32.26C99.9154 32.26 99.3521 32.1473 98.7801 31.922C98.2081 31.6793 97.7141 31.2893 97.2981 30.752C96.8994 30.2147 96.7001 29.504 96.7001 28.62C96.7001 27.3027 97.3068 26.3667 98.5201 25.812C99.7508 25.2573 101.354 24.98 103.33 24.98H104.11C104.11 23.2813 103.876 22.12 103.408 21.496C102.94 20.872 102.264 20.56 101.38 20.56C100.6 20.56 99.9761 20.7247 99.5081 21.054C99.0401 21.3833 98.7108 21.9553 98.5201 22.77H97.3501C97.3501 22.1807 97.3848 21.7213 97.4541 21.392C97.5234 21.0453 97.7054 20.7247 98.0001 20.43C98.3121 20.118 98.8234 19.8927 99.5341 19.754C100.262 19.598 101.051 19.52 101.9 19.52C103.304 19.52 104.413 19.9013 105.228 20.664C106.043 21.4093 106.45 22.848 106.45 24.98V32H105.15L104.24 30.83H104.11C103.798 31.2287 103.339 31.5667 102.732 31.844C102.125 32.1213 101.371 32.26 100.47 32.26ZM101.64 31.09C102.212 31.09 102.689 30.9513 103.07 30.674C103.451 30.3967 103.798 30.0153 104.11 29.53V26.02H103.33C102.047 26.02 101.033 26.2627 100.288 26.748C99.5428 27.216 99.1701 27.84 99.1701 28.62C99.1701 29.4173 99.4041 30.0327 99.8721 30.466C100.357 30.882 100.947 31.09 101.64 31.09ZM111.35 32.26C110.379 32.26 109.616 31.9827 109.062 31.428C108.507 30.8733 108.23 30.024 108.23 28.88V20.82H106.41V19.78H108.23V17.44L109.53 15.88H110.57V19.78H113.69V20.82H110.57V28.88C110.57 30.44 111.176 31.22 112.39 31.22C112.806 31.22 113.152 31.1767 113.43 31.09C113.724 31.0033 114.028 30.8733 114.34 30.7L114.6 31.22C114.201 31.5147 113.759 31.766 113.274 31.974C112.788 32.1647 112.147 32.26 111.35 32.26ZM115.559 18.22C115.16 18.22 114.813 18.0553 114.519 17.726C114.241 17.3967 114.103 17.0067 114.103 16.556C114.103 16.192 114.207 15.906 114.415 15.698C114.64 15.49 114.935 15.386 115.299 15.386C115.697 15.386 116.035 15.5507 116.313 15.88C116.607 16.2093 116.755 16.5993 116.755 17.05C116.755 17.414 116.642 17.7 116.417 17.908C116.209 18.116 115.923 18.22 115.559 18.22ZM114.571 22.9C114.571 22.016 114.449 21.366 114.207 20.95C113.964 20.5167 113.479 20.3 112.751 20.3H112.231V19.78H114.571C115.212 19.78 115.689 19.8667 116.001 20.04C116.33 20.196 116.564 20.4907 116.703 20.924C116.841 21.3573 116.911 22.016 116.911 22.9V32H114.571V22.9ZM123.257 32.26C122.079 32.26 121.056 31.9827 120.189 31.428C119.323 30.856 118.664 30.0847 118.213 29.114C117.763 28.1433 117.537 27.0687 117.537 25.89C117.537 24.7113 117.763 23.6367 118.213 22.666C118.664 21.6953 119.323 20.9327 120.189 20.378C121.056 19.806 122.079 19.52 123.257 19.52C124.436 19.52 125.459 19.806 126.325 20.378C127.192 20.9327 127.851 21.6953 128.301 22.666C128.752 23.6367 128.977 24.7113 128.977 25.89C128.977 27.0687 128.752 28.1433 128.301 29.114C127.851 30.0847 127.192 30.856 126.325 31.428C125.459 31.9827 124.436 32.26 123.257 32.26ZM123.257 31.22C123.899 31.22 124.462 30.986 124.947 30.518C125.45 30.05 125.831 29.4087 126.091 28.594C126.369 27.7793 126.507 26.878 126.507 25.89C126.507 24.902 126.369 24.0007 126.091 23.186C125.831 22.3713 125.45 21.73 124.947 21.262C124.462 20.794 123.899 20.56 123.257 20.56C122.616 20.56 122.044 20.794 121.541 21.262C121.056 21.73 120.675 22.3713 120.397 23.186C120.137 24.0007 120.007 24.902 120.007 25.89C120.007 26.878 120.137 27.7793 120.397 28.594C120.675 29.4087 121.056 30.05 121.541 30.518C122.044 30.986 122.616 31.22 123.257 31.22ZM130.076 22.9C130.076 22.016 129.955 21.366 129.712 20.95C129.47 20.5167 128.984 20.3 128.256 20.3H127.736V19.78H130.076C130.718 19.78 131.203 19.8667 131.532 20.04C131.879 20.2133 132.13 20.4733 132.286 20.82H132.416C132.78 20.456 133.248 20.1527 133.82 19.91C134.41 19.65 135.068 19.52 135.796 19.52C137.096 19.52 138.154 19.8667 138.968 20.56C139.8 21.2533 140.216 22.4667 140.216 24.2V32H137.876V24.2C137.876 22.9867 137.599 22.1027 137.044 21.548C136.507 20.976 135.831 20.69 135.016 20.69C134.098 20.69 133.231 21.1493 132.416 22.068V32H130.076V22.9Z" fill="black"/>
</svg>
