<svg width="155" height="142" viewBox="0 0 155 142" xmlns="http://www.w3.org/2000/svg">
    <path d="M19.9571 6.07596C8.86984 6.07596 3.32618 11.1372 3.32618 21.2603H0.665234V11.3575C0.665234 4.31565 4.43488 0.794434 11.9742 0.794434H73.8412V6.07596H43.9056V87.9396H31.9313V6.07596H19.9571ZM79.8283 34.6442C79.8283 30.1549 79.2072 26.854 77.9657 24.7413C76.7241 22.5405 74.2403 21.4404 70.515 21.4404H67.8541V18.7996H102.712C119.92 18.7996 132.914 22.5849 141.695 30.1549C150.565 37.7249 155 48.2879 155 61.8441C155 70.5586 153.137 78.2606 149.412 84.9507C145.687 91.5526 140.143 96.7021 132.781 100.399C125.508 104.096 116.638 105.945 106.172 105.945H79.8283V34.6442ZM105.773 101.323C112.336 101.323 118.235 99.739 123.468 96.5701C128.79 93.3129 132.958 88.7798 135.974 82.9701C138.99 77.0722 140.498 70.2063 140.498 62.3722C140.498 54.714 138.99 47.9362 135.974 42.0383C133.047 36.1404 128.923 31.5635 123.601 28.3064C118.279 25.0492 112.248 23.421 105.506 23.421C101.249 23.421 96.8142 24.125 92.2017 25.5336V99.6069C97.1686 100.751 101.692 101.323 105.773 101.323ZM11.9742 70.6546C11.9742 66.1653 11.3533 62.8643 10.1116 60.7517C8.86983 58.5509 6.38626 57.4508 2.66094 57.4508H0V54.81H11.9742C15.2561 54.81 17.6953 55.25 19.2918 56.1304C20.9773 56.9226 22.1747 58.4189 22.8841 60.6197C23.5935 62.8205 23.9485 66.1653 23.9485 70.6546V94.4214H63.8627V54.81H75.8369V126.111C75.8369 130.6 76.458 133.945 77.6996 136.145C78.9412 138.258 81.4249 139.314 85.1502 139.314H87.8112V141.955H75.8369C72.5549 141.955 70.0717 141.559 68.3863 140.767C66.7897 139.886 65.6364 138.346 64.927 136.145C64.2177 133.945 63.8627 130.6 63.8627 126.111V99.703H23.9485V141.955H11.9742V70.6546Z" fill="black"/>
</svg>
